<mxfile host="Electron" modified="2023-10-24T10:05:04.696Z" agent="Mozilla/5.0 (Windows NT 10.0; Win64; x64) AppleWebKit/537.36 (KHTML, like Gecko) draw.io/22.0.2 Chrome/114.0.5735.289 Electron/25.8.4 Safari/537.36" etag="nINTMltWvwD6fgEJr-5V" version="22.0.2" type="device">
  <diagram name="Page-1" id="fg_gKyGpMrq1iraQ_4BP">
    <mxGraphModel dx="8607" dy="7393" grid="1" gridSize="10" guides="1" tooltips="1" connect="1" arrows="1" fold="1" page="1" pageScale="1" pageWidth="850" pageHeight="1100" math="0" shadow="0">
      <root>
        <mxCell id="0" />
        <mxCell id="1" parent="0" />
        <mxCell id="CO9Do9xjRyaMU6COLHYs-30" value="123" style="text;html=1;align=center;verticalAlign=middle;resizable=0;points=[];autosize=1;strokeColor=none;fillColor=none;" parent="1" vertex="1">
          <mxGeometry x="2932.5" y="1930" width="40" height="30" as="geometry" />
        </mxCell>
        <mxCell id="70DFdnJKuj6C23wn-OU_-60" value="" style="group" parent="1" vertex="1" connectable="0">
          <mxGeometry x="1700" y="-2080" width="2040" height="1395" as="geometry" />
        </mxCell>
        <mxCell id="70DFdnJKuj6C23wn-OU_-9" value="Руководитель маркетинга" style="shape=umlActor;verticalLabelPosition=bottom;verticalAlign=top;html=1;outlineConnect=0;" parent="70DFdnJKuj6C23wn-OU_-60" vertex="1">
          <mxGeometry x="442.5" y="95" width="55" height="110" as="geometry" />
        </mxCell>
        <mxCell id="70DFdnJKuj6C23wn-OU_-10" value="Разработка и реализация маркетинговой стратегии" style="rounded=0;whiteSpace=wrap;html=1;" parent="70DFdnJKuj6C23wn-OU_-60" vertex="1">
          <mxGeometry x="130" y="365" width="120" height="60" as="geometry" />
        </mxCell>
        <mxCell id="70DFdnJKuj6C23wn-OU_-19" style="edgeStyle=orthogonalEdgeStyle;rounded=0;orthogonalLoop=1;jettySize=auto;html=1;entryX=0.5;entryY=0;entryDx=0;entryDy=0;fontFamily=Helvetica;fontSize=12;fontColor=default;" parent="70DFdnJKuj6C23wn-OU_-60" source="70DFdnJKuj6C23wn-OU_-9" target="70DFdnJKuj6C23wn-OU_-10" edge="1">
          <mxGeometry relative="1" as="geometry" />
        </mxCell>
        <mxCell id="70DFdnJKuj6C23wn-OU_-12" value="Определение целей и бюджет" style="rounded=0;whiteSpace=wrap;html=1;" parent="70DFdnJKuj6C23wn-OU_-60" vertex="1">
          <mxGeometry x="310" y="365" width="120" height="60" as="geometry" />
        </mxCell>
        <mxCell id="70DFdnJKuj6C23wn-OU_-20" style="edgeStyle=orthogonalEdgeStyle;rounded=0;orthogonalLoop=1;jettySize=auto;html=1;entryX=0.5;entryY=0;entryDx=0;entryDy=0;fontFamily=Helvetica;fontSize=12;fontColor=default;" parent="70DFdnJKuj6C23wn-OU_-60" source="70DFdnJKuj6C23wn-OU_-9" target="70DFdnJKuj6C23wn-OU_-12" edge="1">
          <mxGeometry relative="1" as="geometry" />
        </mxCell>
        <mxCell id="70DFdnJKuj6C23wn-OU_-14" value="Управление усилиями по удержанию клиентов" style="rounded=0;whiteSpace=wrap;html=1;" parent="70DFdnJKuj6C23wn-OU_-60" vertex="1">
          <mxGeometry x="600" y="355" width="120" height="60" as="geometry" />
        </mxCell>
        <mxCell id="70DFdnJKuj6C23wn-OU_-18" style="edgeStyle=orthogonalEdgeStyle;rounded=0;orthogonalLoop=1;jettySize=auto;html=1;entryX=0.5;entryY=0;entryDx=0;entryDy=0;fontFamily=Helvetica;fontSize=12;fontColor=default;" parent="70DFdnJKuj6C23wn-OU_-60" source="70DFdnJKuj6C23wn-OU_-9" target="70DFdnJKuj6C23wn-OU_-14" edge="1">
          <mxGeometry relative="1" as="geometry" />
        </mxCell>
        <mxCell id="70DFdnJKuj6C23wn-OU_-16" value="Управление брендом" style="rounded=0;whiteSpace=wrap;html=1;" parent="70DFdnJKuj6C23wn-OU_-60" vertex="1">
          <mxGeometry x="760" y="355" width="120" height="60" as="geometry" />
        </mxCell>
        <mxCell id="70DFdnJKuj6C23wn-OU_-17" style="edgeStyle=orthogonalEdgeStyle;rounded=0;orthogonalLoop=1;jettySize=auto;html=1;entryX=0.5;entryY=0;entryDx=0;entryDy=0;fontFamily=Helvetica;fontSize=12;fontColor=default;" parent="70DFdnJKuj6C23wn-OU_-60" source="70DFdnJKuj6C23wn-OU_-9" target="70DFdnJKuj6C23wn-OU_-16" edge="1">
          <mxGeometry relative="1" as="geometry" />
        </mxCell>
        <mxCell id="70DFdnJKuj6C23wn-OU_-21" value="Специалист по привлечению клиентов" style="shape=umlActor;verticalLabelPosition=bottom;verticalAlign=top;html=1;outlineConnect=0;" parent="70DFdnJKuj6C23wn-OU_-60" vertex="1">
          <mxGeometry x="452.5" y="505" width="55" height="110" as="geometry" />
        </mxCell>
        <mxCell id="70DFdnJKuj6C23wn-OU_-22" value="Привлечение новых клиентов" style="rounded=0;whiteSpace=wrap;html=1;" parent="70DFdnJKuj6C23wn-OU_-60" vertex="1">
          <mxGeometry x="210" y="785" width="120" height="60" as="geometry" />
        </mxCell>
        <mxCell id="70DFdnJKuj6C23wn-OU_-29" style="edgeStyle=orthogonalEdgeStyle;rounded=0;orthogonalLoop=1;jettySize=auto;html=1;fontFamily=Helvetica;fontSize=12;fontColor=default;" parent="70DFdnJKuj6C23wn-OU_-60" source="70DFdnJKuj6C23wn-OU_-21" target="70DFdnJKuj6C23wn-OU_-22" edge="1">
          <mxGeometry relative="1" as="geometry" />
        </mxCell>
        <mxCell id="70DFdnJKuj6C23wn-OU_-24" value="Создание и внедрение маркетинговой кампании" style="rounded=0;whiteSpace=wrap;html=1;" parent="70DFdnJKuj6C23wn-OU_-60" vertex="1">
          <mxGeometry x="420" y="785" width="120" height="60" as="geometry" />
        </mxCell>
        <mxCell id="70DFdnJKuj6C23wn-OU_-30" style="edgeStyle=orthogonalEdgeStyle;rounded=0;orthogonalLoop=1;jettySize=auto;html=1;entryX=0.5;entryY=0;entryDx=0;entryDy=0;fontFamily=Helvetica;fontSize=12;fontColor=default;" parent="70DFdnJKuj6C23wn-OU_-60" source="70DFdnJKuj6C23wn-OU_-21" target="70DFdnJKuj6C23wn-OU_-24" edge="1">
          <mxGeometry relative="1" as="geometry" />
        </mxCell>
        <mxCell id="70DFdnJKuj6C23wn-OU_-26" value="Унализ эффективности маркетинговой кампании" style="rounded=0;whiteSpace=wrap;html=1;" parent="70DFdnJKuj6C23wn-OU_-60" vertex="1">
          <mxGeometry x="650" y="775" width="120" height="60" as="geometry" />
        </mxCell>
        <mxCell id="70DFdnJKuj6C23wn-OU_-28" style="edgeStyle=orthogonalEdgeStyle;rounded=0;orthogonalLoop=1;jettySize=auto;html=1;entryX=0.5;entryY=0;entryDx=0;entryDy=0;fontFamily=Helvetica;fontSize=12;fontColor=default;" parent="70DFdnJKuj6C23wn-OU_-60" source="70DFdnJKuj6C23wn-OU_-21" target="70DFdnJKuj6C23wn-OU_-26" edge="1">
          <mxGeometry relative="1" as="geometry" />
        </mxCell>
        <mxCell id="70DFdnJKuj6C23wn-OU_-31" value="Менеджер по отзывам и обратной связи" style="shape=umlActor;verticalLabelPosition=bottom;verticalAlign=top;html=1;outlineConnect=0;" parent="70DFdnJKuj6C23wn-OU_-60" vertex="1">
          <mxGeometry x="1302.5" y="65" width="55" height="110" as="geometry" />
        </mxCell>
        <mxCell id="70DFdnJKuj6C23wn-OU_-32" value="Сбор и анализ отзывов клментов и обратной связи" style="rounded=0;whiteSpace=wrap;html=1;" parent="70DFdnJKuj6C23wn-OU_-60" vertex="1">
          <mxGeometry x="1060" y="345" width="120" height="60" as="geometry" />
        </mxCell>
        <mxCell id="70DFdnJKuj6C23wn-OU_-39" style="edgeStyle=orthogonalEdgeStyle;rounded=0;orthogonalLoop=1;jettySize=auto;html=1;entryX=0.424;entryY=-0.012;entryDx=0;entryDy=0;entryPerimeter=0;fontFamily=Helvetica;fontSize=12;fontColor=default;" parent="70DFdnJKuj6C23wn-OU_-60" source="70DFdnJKuj6C23wn-OU_-31" target="70DFdnJKuj6C23wn-OU_-32" edge="1">
          <mxGeometry relative="1" as="geometry" />
        </mxCell>
        <mxCell id="70DFdnJKuj6C23wn-OU_-34" value="Улучшение продуктов и услуг" style="rounded=0;whiteSpace=wrap;html=1;" parent="70DFdnJKuj6C23wn-OU_-60" vertex="1">
          <mxGeometry x="1510" y="335" width="120" height="60" as="geometry" />
        </mxCell>
        <mxCell id="70DFdnJKuj6C23wn-OU_-38" style="edgeStyle=orthogonalEdgeStyle;rounded=0;orthogonalLoop=1;jettySize=auto;html=1;entryX=0.5;entryY=0;entryDx=0;entryDy=0;fontFamily=Helvetica;fontSize=12;fontColor=default;" parent="70DFdnJKuj6C23wn-OU_-60" source="70DFdnJKuj6C23wn-OU_-31" target="70DFdnJKuj6C23wn-OU_-34" edge="1">
          <mxGeometry relative="1" as="geometry" />
        </mxCell>
        <mxCell id="70DFdnJKuj6C23wn-OU_-40" value="Аналитик маркетинга" style="shape=umlActor;verticalLabelPosition=bottom;verticalAlign=top;html=1;outlineConnect=0;" parent="70DFdnJKuj6C23wn-OU_-60" vertex="1">
          <mxGeometry x="1292.5" y="475" width="55" height="110" as="geometry" />
        </mxCell>
        <mxCell id="70DFdnJKuj6C23wn-OU_-41" value="Анализ рынка и конкурентов" style="rounded=0;whiteSpace=wrap;html=1;" parent="70DFdnJKuj6C23wn-OU_-60" vertex="1">
          <mxGeometry x="1050" y="755" width="120" height="60" as="geometry" />
        </mxCell>
        <mxCell id="70DFdnJKuj6C23wn-OU_-48" style="edgeStyle=orthogonalEdgeStyle;rounded=0;orthogonalLoop=1;jettySize=auto;html=1;entryX=0.421;entryY=-0.042;entryDx=0;entryDy=0;entryPerimeter=0;fontFamily=Helvetica;fontSize=12;fontColor=default;" parent="70DFdnJKuj6C23wn-OU_-60" source="70DFdnJKuj6C23wn-OU_-40" target="70DFdnJKuj6C23wn-OU_-41" edge="1">
          <mxGeometry relative="1" as="geometry" />
        </mxCell>
        <mxCell id="70DFdnJKuj6C23wn-OU_-43" value="Предоставление рекомендаций для маркетинговой стратегии" style="rounded=0;whiteSpace=wrap;html=1;" parent="70DFdnJKuj6C23wn-OU_-60" vertex="1">
          <mxGeometry x="1480" y="755" width="120" height="60" as="geometry" />
        </mxCell>
        <mxCell id="70DFdnJKuj6C23wn-OU_-47" style="edgeStyle=orthogonalEdgeStyle;rounded=0;orthogonalLoop=1;jettySize=auto;html=1;fontFamily=Helvetica;fontSize=12;fontColor=default;" parent="70DFdnJKuj6C23wn-OU_-60" source="70DFdnJKuj6C23wn-OU_-40" target="70DFdnJKuj6C23wn-OU_-43" edge="1">
          <mxGeometry relative="1" as="geometry" />
        </mxCell>
        <mxCell id="70DFdnJKuj6C23wn-OU_-49" value="Менеджер по сотрудничеству" style="shape=umlActor;verticalLabelPosition=bottom;verticalAlign=top;html=1;outlineConnect=0;" parent="70DFdnJKuj6C23wn-OU_-60" vertex="1">
          <mxGeometry x="962.5" y="985" width="55" height="110" as="geometry" />
        </mxCell>
        <mxCell id="70DFdnJKuj6C23wn-OU_-50" value="Отвечает за сотрудничество с партнерами и агентствами" style="rounded=0;whiteSpace=wrap;html=1;" parent="70DFdnJKuj6C23wn-OU_-60" vertex="1">
          <mxGeometry x="720" y="1265" width="120" height="60" as="geometry" />
        </mxCell>
        <mxCell id="70DFdnJKuj6C23wn-OU_-58" style="edgeStyle=orthogonalEdgeStyle;rounded=0;orthogonalLoop=1;jettySize=auto;html=1;entryX=0.419;entryY=-0.05;entryDx=0;entryDy=0;entryPerimeter=0;fontFamily=Helvetica;fontSize=12;fontColor=default;" parent="70DFdnJKuj6C23wn-OU_-60" source="70DFdnJKuj6C23wn-OU_-49" target="70DFdnJKuj6C23wn-OU_-50" edge="1">
          <mxGeometry relative="1" as="geometry" />
        </mxCell>
        <mxCell id="70DFdnJKuj6C23wn-OU_-52" value="Установка и поддержание партнерских отношений" style="rounded=0;whiteSpace=wrap;html=1;" parent="70DFdnJKuj6C23wn-OU_-60" vertex="1">
          <mxGeometry x="1150" y="1275" width="120" height="60" as="geometry" />
        </mxCell>
        <mxCell id="70DFdnJKuj6C23wn-OU_-57" style="edgeStyle=orthogonalEdgeStyle;rounded=0;orthogonalLoop=1;jettySize=auto;html=1;entryX=0.5;entryY=0;entryDx=0;entryDy=0;fontFamily=Helvetica;fontSize=12;fontColor=default;" parent="70DFdnJKuj6C23wn-OU_-60" source="70DFdnJKuj6C23wn-OU_-49" target="70DFdnJKuj6C23wn-OU_-52" edge="1">
          <mxGeometry relative="1" as="geometry" />
        </mxCell>
        <mxCell id="70DFdnJKuj6C23wn-OU_-59" value="" style="shape=partialRectangle;whiteSpace=wrap;html=1;bottom=0;top=0;fillColor=none;rounded=0;strokeColor=default;fontFamily=Helvetica;fontSize=12;fontColor=default;strokeWidth=15;" parent="70DFdnJKuj6C23wn-OU_-60" vertex="1">
          <mxGeometry width="2040" height="1395" as="geometry" />
        </mxCell>
        <mxCell id="70DFdnJKuj6C23wn-OU_-136" value="" style="group" parent="1" vertex="1" connectable="0">
          <mxGeometry x="-1360" y="-2060" width="1820" height="1250" as="geometry" />
        </mxCell>
        <mxCell id="CO9Do9xjRyaMU6COLHYs-1" value="Игрок" style="shape=umlActor;verticalLabelPosition=bottom;verticalAlign=top;html=1;outlineConnect=0;container=0;" parent="70DFdnJKuj6C23wn-OU_-136" vertex="1">
          <mxGeometry x="567.5" y="180" width="55" height="110" as="geometry" />
        </mxCell>
        <mxCell id="CO9Do9xjRyaMU6COLHYs-12" value="Создание своей учетной записи" style="rounded=0;whiteSpace=wrap;html=1;container=0;" parent="70DFdnJKuj6C23wn-OU_-136" vertex="1">
          <mxGeometry x="300" y="460" width="120" height="60" as="geometry" />
        </mxCell>
        <mxCell id="CO9Do9xjRyaMU6COLHYs-19" style="edgeStyle=orthogonalEdgeStyle;rounded=0;orthogonalLoop=1;jettySize=auto;html=1;entryX=0.5;entryY=0;entryDx=0;entryDy=0;" parent="70DFdnJKuj6C23wn-OU_-136" source="CO9Do9xjRyaMU6COLHYs-1" target="CO9Do9xjRyaMU6COLHYs-12" edge="1">
          <mxGeometry relative="1" as="geometry" />
        </mxCell>
        <mxCell id="CO9Do9xjRyaMU6COLHYs-13" value="Создание персонажа" style="rounded=0;whiteSpace=wrap;html=1;container=0;" parent="70DFdnJKuj6C23wn-OU_-136" vertex="1">
          <mxGeometry x="460" y="460" width="120" height="60" as="geometry" />
        </mxCell>
        <mxCell id="CO9Do9xjRyaMU6COLHYs-20" style="edgeStyle=orthogonalEdgeStyle;rounded=0;orthogonalLoop=1;jettySize=auto;html=1;entryX=0.5;entryY=0;entryDx=0;entryDy=0;" parent="70DFdnJKuj6C23wn-OU_-136" source="CO9Do9xjRyaMU6COLHYs-1" target="CO9Do9xjRyaMU6COLHYs-13" edge="1">
          <mxGeometry relative="1" as="geometry">
            <Array as="points">
              <mxPoint x="520.5" y="235" />
              <mxPoint x="520.5" y="375" />
            </Array>
          </mxGeometry>
        </mxCell>
        <mxCell id="CO9Do9xjRyaMU6COLHYs-14" value="Учет персонажей" style="rounded=0;whiteSpace=wrap;html=1;container=0;" parent="70DFdnJKuj6C23wn-OU_-136" vertex="1">
          <mxGeometry x="620" y="460" width="120" height="60" as="geometry" />
        </mxCell>
        <mxCell id="CO9Do9xjRyaMU6COLHYs-18" style="edgeStyle=orthogonalEdgeStyle;rounded=0;orthogonalLoop=1;jettySize=auto;html=1;" parent="70DFdnJKuj6C23wn-OU_-136" source="CO9Do9xjRyaMU6COLHYs-1" target="CO9Do9xjRyaMU6COLHYs-14" edge="1">
          <mxGeometry relative="1" as="geometry">
            <Array as="points">
              <mxPoint x="680.4999999999999" y="235" />
            </Array>
          </mxGeometry>
        </mxCell>
        <mxCell id="CO9Do9xjRyaMU6COLHYs-15" value="Управление инвентарем персонажа" style="rounded=0;whiteSpace=wrap;html=1;container=0;" parent="70DFdnJKuj6C23wn-OU_-136" vertex="1">
          <mxGeometry x="769.9999999999999" y="460" width="120" height="60" as="geometry" />
        </mxCell>
        <mxCell id="CO9Do9xjRyaMU6COLHYs-17" style="edgeStyle=orthogonalEdgeStyle;rounded=0;orthogonalLoop=1;jettySize=auto;html=1;entryX=0.5;entryY=0;entryDx=0;entryDy=0;" parent="70DFdnJKuj6C23wn-OU_-136" source="CO9Do9xjRyaMU6COLHYs-1" target="CO9Do9xjRyaMU6COLHYs-15" edge="1">
          <mxGeometry relative="1" as="geometry" />
        </mxCell>
        <mxCell id="CO9Do9xjRyaMU6COLHYs-21" value="Сценарист" style="shape=umlActor;verticalLabelPosition=bottom;verticalAlign=top;html=1;outlineConnect=0;container=0;" parent="70DFdnJKuj6C23wn-OU_-136" vertex="1">
          <mxGeometry x="567.5" y="640" width="55" height="110" as="geometry" />
        </mxCell>
        <mxCell id="CO9Do9xjRyaMU6COLHYs-22" value="Создавать сценарии" style="rounded=0;whiteSpace=wrap;html=1;container=0;" parent="70DFdnJKuj6C23wn-OU_-136" vertex="1">
          <mxGeometry x="300" y="910" width="120" height="60" as="geometry" />
        </mxCell>
        <mxCell id="CO9Do9xjRyaMU6COLHYs-23" value="Управление диалогами" style="rounded=0;whiteSpace=wrap;html=1;container=0;" parent="70DFdnJKuj6C23wn-OU_-136" vertex="1">
          <mxGeometry x="460" y="910" width="120" height="60" as="geometry" />
        </mxCell>
        <mxCell id="CO9Do9xjRyaMU6COLHYs-24" value="Создавать варианты ответов для диалогов" style="rounded=0;whiteSpace=wrap;html=1;container=0;" parent="70DFdnJKuj6C23wn-OU_-136" vertex="1">
          <mxGeometry x="620" y="910" width="120" height="60" as="geometry" />
        </mxCell>
        <mxCell id="CO9Do9xjRyaMU6COLHYs-27" style="edgeStyle=orthogonalEdgeStyle;rounded=0;orthogonalLoop=1;jettySize=auto;html=1;entryX=0.5;entryY=0;entryDx=0;entryDy=0;" parent="70DFdnJKuj6C23wn-OU_-136" source="CO9Do9xjRyaMU6COLHYs-21" target="CO9Do9xjRyaMU6COLHYs-24" edge="1">
          <mxGeometry relative="1" as="geometry">
            <Array as="points">
              <mxPoint x="680.4999999999999" y="695" />
              <mxPoint x="680.4999999999999" y="830" />
            </Array>
          </mxGeometry>
        </mxCell>
        <mxCell id="CO9Do9xjRyaMU6COLHYs-25" value="Создавать задания" style="rounded=0;whiteSpace=wrap;html=1;container=0;" parent="70DFdnJKuj6C23wn-OU_-136" vertex="1">
          <mxGeometry x="769.9999999999999" y="910" width="120" height="60" as="geometry" />
        </mxCell>
        <mxCell id="CO9Do9xjRyaMU6COLHYs-26" style="edgeStyle=orthogonalEdgeStyle;rounded=0;orthogonalLoop=1;jettySize=auto;html=1;entryX=0.5;entryY=0;entryDx=0;entryDy=0;" parent="70DFdnJKuj6C23wn-OU_-136" source="CO9Do9xjRyaMU6COLHYs-21" target="CO9Do9xjRyaMU6COLHYs-25" edge="1">
          <mxGeometry relative="1" as="geometry" />
        </mxCell>
        <mxCell id="CO9Do9xjRyaMU6COLHYs-28" style="edgeStyle=orthogonalEdgeStyle;rounded=0;orthogonalLoop=1;jettySize=auto;html=1;entryX=0.451;entryY=-0.056;entryDx=0;entryDy=0;entryPerimeter=0;" parent="70DFdnJKuj6C23wn-OU_-136" source="CO9Do9xjRyaMU6COLHYs-21" target="CO9Do9xjRyaMU6COLHYs-23" edge="1">
          <mxGeometry relative="1" as="geometry">
            <Array as="points">
              <mxPoint x="514.5" y="695" />
            </Array>
          </mxGeometry>
        </mxCell>
        <mxCell id="CO9Do9xjRyaMU6COLHYs-29" style="edgeStyle=orthogonalEdgeStyle;rounded=0;orthogonalLoop=1;jettySize=auto;html=1;entryX=0.442;entryY=-0.02;entryDx=0;entryDy=0;entryPerimeter=0;" parent="70DFdnJKuj6C23wn-OU_-136" source="CO9Do9xjRyaMU6COLHYs-21" target="CO9Do9xjRyaMU6COLHYs-22" edge="1">
          <mxGeometry relative="1" as="geometry" />
        </mxCell>
        <mxCell id="CO9Do9xjRyaMU6COLHYs-31" value="Дизайнер&amp;nbsp; уровней" style="shape=umlActor;verticalLabelPosition=bottom;verticalAlign=top;html=1;outlineConnect=0;container=0;" parent="70DFdnJKuj6C23wn-OU_-136" vertex="1">
          <mxGeometry x="1292.5" y="180" width="55" height="110" as="geometry" />
        </mxCell>
        <mxCell id="CO9Do9xjRyaMU6COLHYs-32" value="Создавать и управление локациями" style="rounded=0;whiteSpace=wrap;html=1;container=0;" parent="70DFdnJKuj6C23wn-OU_-136" vertex="1">
          <mxGeometry x="1050" y="460" width="120" height="60" as="geometry" />
        </mxCell>
        <mxCell id="CO9Do9xjRyaMU6COLHYs-35" style="edgeStyle=orthogonalEdgeStyle;rounded=0;orthogonalLoop=1;jettySize=auto;html=1;" parent="70DFdnJKuj6C23wn-OU_-136" source="CO9Do9xjRyaMU6COLHYs-31" target="CO9Do9xjRyaMU6COLHYs-32" edge="1">
          <mxGeometry relative="1" as="geometry" />
        </mxCell>
        <mxCell id="CO9Do9xjRyaMU6COLHYs-33" value="Создавать события на локациях" style="rounded=0;whiteSpace=wrap;html=1;container=0;" parent="70DFdnJKuj6C23wn-OU_-136" vertex="1">
          <mxGeometry x="1260" y="460" width="120" height="60" as="geometry" />
        </mxCell>
        <mxCell id="70DFdnJKuj6C23wn-OU_-7" style="edgeStyle=orthogonalEdgeStyle;rounded=0;orthogonalLoop=1;jettySize=auto;html=1;entryX=0.5;entryY=0;entryDx=0;entryDy=0;fontFamily=Helvetica;fontSize=12;fontColor=default;" parent="70DFdnJKuj6C23wn-OU_-136" source="CO9Do9xjRyaMU6COLHYs-31" target="CO9Do9xjRyaMU6COLHYs-33" edge="1">
          <mxGeometry relative="1" as="geometry" />
        </mxCell>
        <mxCell id="70DFdnJKuj6C23wn-OU_-1" value="Создание игрового мира" style="rounded=0;whiteSpace=wrap;html=1;container=0;" parent="70DFdnJKuj6C23wn-OU_-136" vertex="1">
          <mxGeometry x="912.4999999999999" y="910" width="120" height="60" as="geometry" />
        </mxCell>
        <mxCell id="70DFdnJKuj6C23wn-OU_-2" style="edgeStyle=orthogonalEdgeStyle;rounded=0;orthogonalLoop=1;jettySize=auto;html=1;entryX=0.5;entryY=0;entryDx=0;entryDy=0;" parent="70DFdnJKuj6C23wn-OU_-136" source="CO9Do9xjRyaMU6COLHYs-21" target="70DFdnJKuj6C23wn-OU_-1" edge="1">
          <mxGeometry relative="1" as="geometry">
            <mxPoint x="619.9999999999999" y="695" as="sourcePoint" />
            <Array as="points">
              <mxPoint x="972.9999999999999" y="695" />
            </Array>
          </mxGeometry>
        </mxCell>
        <mxCell id="70DFdnJKuj6C23wn-OU_-3" value="Создание баланса и уровня сложности на локациях" style="rounded=0;whiteSpace=wrap;html=1;container=0;" parent="70DFdnJKuj6C23wn-OU_-136" vertex="1">
          <mxGeometry x="1490" y="450" width="120" height="60" as="geometry" />
        </mxCell>
        <mxCell id="70DFdnJKuj6C23wn-OU_-4" style="edgeStyle=orthogonalEdgeStyle;rounded=0;orthogonalLoop=1;jettySize=auto;html=1;entryX=0.5;entryY=0;entryDx=0;entryDy=0;" parent="70DFdnJKuj6C23wn-OU_-136" source="CO9Do9xjRyaMU6COLHYs-31" target="70DFdnJKuj6C23wn-OU_-3" edge="1">
          <mxGeometry relative="1" as="geometry" />
        </mxCell>
        <mxCell id="70DFdnJKuj6C23wn-OU_-61" value="" style="shape=partialRectangle;whiteSpace=wrap;html=1;bottom=0;top=0;fillColor=none;rounded=0;strokeColor=default;fontFamily=Helvetica;fontSize=12;fontColor=default;strokeWidth=15;container=0;" parent="70DFdnJKuj6C23wn-OU_-136" vertex="1">
          <mxGeometry width="1820" height="1250" as="geometry" />
        </mxCell>
        <mxCell id="70DFdnJKuj6C23wn-OU_-139" value="" style="group" parent="1" vertex="1" connectable="0">
          <mxGeometry x="-1210" y="-110" width="2040" height="1395" as="geometry" />
        </mxCell>
        <mxCell id="70DFdnJKuj6C23wn-OU_-102" value="" style="shape=partialRectangle;whiteSpace=wrap;html=1;bottom=0;top=0;fillColor=none;rounded=0;strokeColor=default;fontFamily=Helvetica;fontSize=12;fontColor=default;strokeWidth=15;movable=1;resizable=1;rotatable=1;deletable=1;editable=1;locked=0;connectable=1;" parent="70DFdnJKuj6C23wn-OU_-139" vertex="1">
          <mxGeometry width="2040" height="1395" as="geometry" />
        </mxCell>
        <mxCell id="70DFdnJKuj6C23wn-OU_-71" value="Финансовый директор" style="shape=umlActor;verticalLabelPosition=bottom;verticalAlign=top;html=1;outlineConnect=0;" parent="70DFdnJKuj6C23wn-OU_-139" vertex="1">
          <mxGeometry x="442.5" y="95" width="55" height="110" as="geometry" />
        </mxCell>
        <mxCell id="70DFdnJKuj6C23wn-OU_-72" value="Финансовое планирование и бюджетирование" style="rounded=0;whiteSpace=wrap;html=1;" parent="70DFdnJKuj6C23wn-OU_-139" vertex="1">
          <mxGeometry x="130" y="365" width="120" height="60" as="geometry" />
        </mxCell>
        <mxCell id="70DFdnJKuj6C23wn-OU_-73" style="edgeStyle=orthogonalEdgeStyle;rounded=0;orthogonalLoop=1;jettySize=auto;html=1;entryX=0.5;entryY=0;entryDx=0;entryDy=0;fontFamily=Helvetica;fontSize=12;fontColor=default;" parent="70DFdnJKuj6C23wn-OU_-139" source="70DFdnJKuj6C23wn-OU_-71" target="70DFdnJKuj6C23wn-OU_-72" edge="1">
          <mxGeometry relative="1" as="geometry" />
        </mxCell>
        <mxCell id="70DFdnJKuj6C23wn-OU_-74" value="Управление инвестициями" style="rounded=0;whiteSpace=wrap;html=1;" parent="70DFdnJKuj6C23wn-OU_-139" vertex="1">
          <mxGeometry x="310" y="365" width="120" height="60" as="geometry" />
        </mxCell>
        <mxCell id="70DFdnJKuj6C23wn-OU_-75" style="edgeStyle=orthogonalEdgeStyle;rounded=0;orthogonalLoop=1;jettySize=auto;html=1;entryX=0.5;entryY=0;entryDx=0;entryDy=0;fontFamily=Helvetica;fontSize=12;fontColor=default;" parent="70DFdnJKuj6C23wn-OU_-139" source="70DFdnJKuj6C23wn-OU_-71" target="70DFdnJKuj6C23wn-OU_-74" edge="1">
          <mxGeometry relative="1" as="geometry" />
        </mxCell>
        <mxCell id="70DFdnJKuj6C23wn-OU_-76" value="Управление финансовой стратегии" style="rounded=0;whiteSpace=wrap;html=1;" parent="70DFdnJKuj6C23wn-OU_-139" vertex="1">
          <mxGeometry x="600" y="355" width="120" height="60" as="geometry" />
        </mxCell>
        <mxCell id="70DFdnJKuj6C23wn-OU_-77" style="edgeStyle=orthogonalEdgeStyle;rounded=0;orthogonalLoop=1;jettySize=auto;html=1;entryX=0.5;entryY=0;entryDx=0;entryDy=0;fontFamily=Helvetica;fontSize=12;fontColor=default;" parent="70DFdnJKuj6C23wn-OU_-139" source="70DFdnJKuj6C23wn-OU_-71" target="70DFdnJKuj6C23wn-OU_-76" edge="1">
          <mxGeometry relative="1" as="geometry" />
        </mxCell>
        <mxCell id="70DFdnJKuj6C23wn-OU_-80" value="Финансовый аналитик" style="shape=umlActor;verticalLabelPosition=bottom;verticalAlign=top;html=1;outlineConnect=0;" parent="70DFdnJKuj6C23wn-OU_-139" vertex="1">
          <mxGeometry x="452.5" y="505" width="55" height="110" as="geometry" />
        </mxCell>
        <mxCell id="70DFdnJKuj6C23wn-OU_-81" value="Финансовый анализ" style="rounded=0;whiteSpace=wrap;html=1;" parent="70DFdnJKuj6C23wn-OU_-139" vertex="1">
          <mxGeometry x="210" y="785" width="120" height="60" as="geometry" />
        </mxCell>
        <mxCell id="70DFdnJKuj6C23wn-OU_-82" style="edgeStyle=orthogonalEdgeStyle;rounded=0;orthogonalLoop=1;jettySize=auto;html=1;fontFamily=Helvetica;fontSize=12;fontColor=default;" parent="70DFdnJKuj6C23wn-OU_-139" source="70DFdnJKuj6C23wn-OU_-80" target="70DFdnJKuj6C23wn-OU_-81" edge="1">
          <mxGeometry relative="1" as="geometry" />
        </mxCell>
        <mxCell id="70DFdnJKuj6C23wn-OU_-83" value="Управление рисками" style="rounded=0;whiteSpace=wrap;html=1;" parent="70DFdnJKuj6C23wn-OU_-139" vertex="1">
          <mxGeometry x="600" y="785" width="120" height="60" as="geometry" />
        </mxCell>
        <mxCell id="70DFdnJKuj6C23wn-OU_-138" style="edgeStyle=orthogonalEdgeStyle;rounded=0;orthogonalLoop=1;jettySize=auto;html=1;fontFamily=Helvetica;fontSize=12;fontColor=default;entryX=0.5;entryY=0;entryDx=0;entryDy=0;" parent="70DFdnJKuj6C23wn-OU_-139" source="70DFdnJKuj6C23wn-OU_-80" target="70DFdnJKuj6C23wn-OU_-83" edge="1">
          <mxGeometry relative="1" as="geometry" />
        </mxCell>
        <mxCell id="70DFdnJKuj6C23wn-OU_-87" value="Специалист по ликвидности" style="shape=umlActor;verticalLabelPosition=bottom;verticalAlign=top;html=1;outlineConnect=0;" parent="70DFdnJKuj6C23wn-OU_-139" vertex="1">
          <mxGeometry x="1302.5" y="65" width="55" height="110" as="geometry" />
        </mxCell>
        <mxCell id="70DFdnJKuj6C23wn-OU_-88" value="Управление ликвидности" style="rounded=0;whiteSpace=wrap;html=1;" parent="70DFdnJKuj6C23wn-OU_-139" vertex="1">
          <mxGeometry x="1280" y="295" width="120" height="60" as="geometry" />
        </mxCell>
        <mxCell id="70DFdnJKuj6C23wn-OU_-89" style="edgeStyle=orthogonalEdgeStyle;rounded=0;orthogonalLoop=1;jettySize=auto;html=1;entryX=0.424;entryY=-0.012;entryDx=0;entryDy=0;entryPerimeter=0;fontFamily=Helvetica;fontSize=12;fontColor=default;" parent="70DFdnJKuj6C23wn-OU_-139" source="70DFdnJKuj6C23wn-OU_-87" target="70DFdnJKuj6C23wn-OU_-88" edge="1">
          <mxGeometry relative="1" as="geometry" />
        </mxCell>
        <mxCell id="70DFdnJKuj6C23wn-OU_-92" value="Специалист по учету и финансовой отчетности" style="shape=umlActor;verticalLabelPosition=bottom;verticalAlign=top;html=1;outlineConnect=0;" parent="70DFdnJKuj6C23wn-OU_-139" vertex="1">
          <mxGeometry x="1292.5" y="475" width="55" height="110" as="geometry" />
        </mxCell>
        <mxCell id="70DFdnJKuj6C23wn-OU_-93" value="Учет и финансовая отчетность" style="rounded=0;whiteSpace=wrap;html=1;" parent="70DFdnJKuj6C23wn-OU_-139" vertex="1">
          <mxGeometry x="1270" y="757.5" width="120" height="60" as="geometry" />
        </mxCell>
        <mxCell id="70DFdnJKuj6C23wn-OU_-94" style="edgeStyle=orthogonalEdgeStyle;rounded=0;orthogonalLoop=1;jettySize=auto;html=1;entryX=0.421;entryY=-0.042;entryDx=0;entryDy=0;entryPerimeter=0;fontFamily=Helvetica;fontSize=12;fontColor=default;" parent="70DFdnJKuj6C23wn-OU_-139" source="70DFdnJKuj6C23wn-OU_-92" target="70DFdnJKuj6C23wn-OU_-93" edge="1">
          <mxGeometry relative="1" as="geometry" />
        </mxCell>
        <mxCell id="70DFdnJKuj6C23wn-OU_-97" value="Специалист по управлению дебиторской и кредиторской задолженностью" style="shape=umlActor;verticalLabelPosition=bottom;verticalAlign=top;html=1;outlineConnect=0;" parent="70DFdnJKuj6C23wn-OU_-139" vertex="1">
          <mxGeometry x="962.5" y="985" width="55" height="110" as="geometry" />
        </mxCell>
        <mxCell id="70DFdnJKuj6C23wn-OU_-98" value="Управление дебиторской задолженностью" style="rounded=0;whiteSpace=wrap;html=1;" parent="70DFdnJKuj6C23wn-OU_-139" vertex="1">
          <mxGeometry x="720" y="1265" width="120" height="60" as="geometry" />
        </mxCell>
        <mxCell id="70DFdnJKuj6C23wn-OU_-99" style="edgeStyle=orthogonalEdgeStyle;rounded=0;orthogonalLoop=1;jettySize=auto;html=1;entryX=0.419;entryY=-0.05;entryDx=0;entryDy=0;entryPerimeter=0;fontFamily=Helvetica;fontSize=12;fontColor=default;" parent="70DFdnJKuj6C23wn-OU_-139" source="70DFdnJKuj6C23wn-OU_-97" target="70DFdnJKuj6C23wn-OU_-98" edge="1">
          <mxGeometry relative="1" as="geometry" />
        </mxCell>
        <mxCell id="70DFdnJKuj6C23wn-OU_-100" value="Управление кредиторской задолженностью" style="rounded=0;whiteSpace=wrap;html=1;" parent="70DFdnJKuj6C23wn-OU_-139" vertex="1">
          <mxGeometry x="1150" y="1275" width="120" height="60" as="geometry" />
        </mxCell>
        <mxCell id="70DFdnJKuj6C23wn-OU_-101" style="edgeStyle=orthogonalEdgeStyle;rounded=0;orthogonalLoop=1;jettySize=auto;html=1;entryX=0.5;entryY=0;entryDx=0;entryDy=0;fontFamily=Helvetica;fontSize=12;fontColor=default;" parent="70DFdnJKuj6C23wn-OU_-139" source="70DFdnJKuj6C23wn-OU_-97" target="70DFdnJKuj6C23wn-OU_-100" edge="1">
          <mxGeometry relative="1" as="geometry" />
        </mxCell>
        <mxCell id="70DFdnJKuj6C23wn-OU_-140" value="" style="group" parent="1" vertex="1" connectable="0">
          <mxGeometry x="1540" y="-130" width="2040" height="1395" as="geometry" />
        </mxCell>
        <mxCell id="70DFdnJKuj6C23wn-OU_-135" value="" style="shape=partialRectangle;whiteSpace=wrap;html=1;bottom=0;top=0;fillColor=none;rounded=0;strokeColor=default;fontFamily=Helvetica;fontSize=12;fontColor=default;strokeWidth=15;container=0;" parent="70DFdnJKuj6C23wn-OU_-140" vertex="1">
          <mxGeometry width="2040" height="1395" as="geometry" />
        </mxCell>
        <mxCell id="70DFdnJKuj6C23wn-OU_-104" value="HR Менеджер" style="shape=umlActor;verticalLabelPosition=bottom;verticalAlign=top;html=1;outlineConnect=0;container=0;" parent="70DFdnJKuj6C23wn-OU_-140" vertex="1">
          <mxGeometry x="442.5" y="95" width="55" height="110" as="geometry" />
        </mxCell>
        <mxCell id="70DFdnJKuj6C23wn-OU_-105" value="Управленеи набором и наймом персонала" style="rounded=0;whiteSpace=wrap;html=1;container=0;" parent="70DFdnJKuj6C23wn-OU_-140" vertex="1">
          <mxGeometry x="130" y="365" width="120" height="60" as="geometry" />
        </mxCell>
        <mxCell id="70DFdnJKuj6C23wn-OU_-106" style="edgeStyle=orthogonalEdgeStyle;rounded=0;orthogonalLoop=1;jettySize=auto;html=1;entryX=0.5;entryY=0;entryDx=0;entryDy=0;fontFamily=Helvetica;fontSize=12;fontColor=default;" parent="70DFdnJKuj6C23wn-OU_-140" source="70DFdnJKuj6C23wn-OU_-104" target="70DFdnJKuj6C23wn-OU_-105" edge="1">
          <mxGeometry relative="1" as="geometry" />
        </mxCell>
        <mxCell id="70DFdnJKuj6C23wn-OU_-107" value="Увольнение персонала" style="rounded=0;whiteSpace=wrap;html=1;container=0;" parent="70DFdnJKuj6C23wn-OU_-140" vertex="1">
          <mxGeometry x="310" y="365" width="120" height="60" as="geometry" />
        </mxCell>
        <mxCell id="70DFdnJKuj6C23wn-OU_-108" style="edgeStyle=orthogonalEdgeStyle;rounded=0;orthogonalLoop=1;jettySize=auto;html=1;entryX=0.5;entryY=0;entryDx=0;entryDy=0;fontFamily=Helvetica;fontSize=12;fontColor=default;" parent="70DFdnJKuj6C23wn-OU_-140" source="70DFdnJKuj6C23wn-OU_-104" target="70DFdnJKuj6C23wn-OU_-107" edge="1">
          <mxGeometry relative="1" as="geometry" />
        </mxCell>
        <mxCell id="70DFdnJKuj6C23wn-OU_-109" value="Управление персоналом" style="rounded=0;whiteSpace=wrap;html=1;container=0;" parent="70DFdnJKuj6C23wn-OU_-140" vertex="1">
          <mxGeometry x="600" y="355" width="120" height="60" as="geometry" />
        </mxCell>
        <mxCell id="70DFdnJKuj6C23wn-OU_-110" style="edgeStyle=orthogonalEdgeStyle;rounded=0;orthogonalLoop=1;jettySize=auto;html=1;entryX=0.5;entryY=0;entryDx=0;entryDy=0;fontFamily=Helvetica;fontSize=12;fontColor=default;" parent="70DFdnJKuj6C23wn-OU_-140" source="70DFdnJKuj6C23wn-OU_-104" target="70DFdnJKuj6C23wn-OU_-109" edge="1">
          <mxGeometry relative="1" as="geometry" />
        </mxCell>
        <mxCell id="70DFdnJKuj6C23wn-OU_-113" value="Специалист по обучению" style="shape=umlActor;verticalLabelPosition=bottom;verticalAlign=top;html=1;outlineConnect=0;container=0;" parent="70DFdnJKuj6C23wn-OU_-140" vertex="1">
          <mxGeometry x="452.5" y="505" width="55" height="110" as="geometry" />
        </mxCell>
        <mxCell id="70DFdnJKuj6C23wn-OU_-114" value="Обечение и развитие сотрудников" style="rounded=0;whiteSpace=wrap;html=1;container=0;" parent="70DFdnJKuj6C23wn-OU_-140" vertex="1">
          <mxGeometry x="210" y="785" width="120" height="60" as="geometry" />
        </mxCell>
        <mxCell id="70DFdnJKuj6C23wn-OU_-115" style="edgeStyle=orthogonalEdgeStyle;rounded=0;orthogonalLoop=1;jettySize=auto;html=1;fontFamily=Helvetica;fontSize=12;fontColor=default;" parent="70DFdnJKuj6C23wn-OU_-140" source="70DFdnJKuj6C23wn-OU_-113" target="70DFdnJKuj6C23wn-OU_-114" edge="1">
          <mxGeometry relative="1" as="geometry" />
        </mxCell>
        <mxCell id="70DFdnJKuj6C23wn-OU_-118" value="Развитие корпоративной культуры" style="rounded=0;whiteSpace=wrap;html=1;container=0;" parent="70DFdnJKuj6C23wn-OU_-140" vertex="1">
          <mxGeometry x="650" y="775" width="120" height="60" as="geometry" />
        </mxCell>
        <mxCell id="70DFdnJKuj6C23wn-OU_-119" style="edgeStyle=orthogonalEdgeStyle;rounded=0;orthogonalLoop=1;jettySize=auto;html=1;entryX=0.5;entryY=0;entryDx=0;entryDy=0;fontFamily=Helvetica;fontSize=12;fontColor=default;" parent="70DFdnJKuj6C23wn-OU_-140" source="70DFdnJKuj6C23wn-OU_-113" target="70DFdnJKuj6C23wn-OU_-118" edge="1">
          <mxGeometry relative="1" as="geometry" />
        </mxCell>
        <mxCell id="70DFdnJKuj6C23wn-OU_-120" value="HR Специалист" style="shape=umlActor;verticalLabelPosition=bottom;verticalAlign=top;html=1;outlineConnect=0;container=0;" parent="70DFdnJKuj6C23wn-OU_-140" vertex="1">
          <mxGeometry x="1302.5" y="65" width="55" height="110" as="geometry" />
        </mxCell>
        <mxCell id="70DFdnJKuj6C23wn-OU_-121" value="Оценка и управление производительностью" style="rounded=0;whiteSpace=wrap;html=1;container=0;" parent="70DFdnJKuj6C23wn-OU_-140" vertex="1">
          <mxGeometry x="1060" y="345" width="140" height="60" as="geometry" />
        </mxCell>
        <mxCell id="70DFdnJKuj6C23wn-OU_-122" style="edgeStyle=orthogonalEdgeStyle;rounded=0;orthogonalLoop=1;jettySize=auto;html=1;entryX=0.424;entryY=-0.012;entryDx=0;entryDy=0;entryPerimeter=0;fontFamily=Helvetica;fontSize=12;fontColor=default;" parent="70DFdnJKuj6C23wn-OU_-140" source="70DFdnJKuj6C23wn-OU_-120" target="70DFdnJKuj6C23wn-OU_-121" edge="1">
          <mxGeometry relative="1" as="geometry" />
        </mxCell>
        <mxCell id="70DFdnJKuj6C23wn-OU_-123" value="Управление конфликтами" style="rounded=0;whiteSpace=wrap;html=1;container=0;" parent="70DFdnJKuj6C23wn-OU_-140" vertex="1">
          <mxGeometry x="1510" y="335" width="120" height="60" as="geometry" />
        </mxCell>
        <mxCell id="70DFdnJKuj6C23wn-OU_-124" style="edgeStyle=orthogonalEdgeStyle;rounded=0;orthogonalLoop=1;jettySize=auto;html=1;entryX=0.5;entryY=0;entryDx=0;entryDy=0;fontFamily=Helvetica;fontSize=12;fontColor=default;" parent="70DFdnJKuj6C23wn-OU_-140" source="70DFdnJKuj6C23wn-OU_-120" target="70DFdnJKuj6C23wn-OU_-123" edge="1">
          <mxGeometry relative="1" as="geometry" />
        </mxCell>
        <mxCell id="70DFdnJKuj6C23wn-OU_-125" value="Специалист по компенсациям" style="shape=umlActor;verticalLabelPosition=bottom;verticalAlign=top;html=1;outlineConnect=0;container=0;" parent="70DFdnJKuj6C23wn-OU_-140" vertex="1">
          <mxGeometry x="1292.5" y="475" width="55" height="110" as="geometry" />
        </mxCell>
        <mxCell id="70DFdnJKuj6C23wn-OU_-126" value="Управление зарплатой" style="rounded=0;whiteSpace=wrap;html=1;container=0;" parent="70DFdnJKuj6C23wn-OU_-140" vertex="1">
          <mxGeometry x="1050" y="755" width="120" height="60" as="geometry" />
        </mxCell>
        <mxCell id="70DFdnJKuj6C23wn-OU_-127" style="edgeStyle=orthogonalEdgeStyle;rounded=0;orthogonalLoop=1;jettySize=auto;html=1;entryX=0.421;entryY=-0.042;entryDx=0;entryDy=0;entryPerimeter=0;fontFamily=Helvetica;fontSize=12;fontColor=default;" parent="70DFdnJKuj6C23wn-OU_-140" source="70DFdnJKuj6C23wn-OU_-125" target="70DFdnJKuj6C23wn-OU_-126" edge="1">
          <mxGeometry relative="1" as="geometry" />
        </mxCell>
        <mxCell id="70DFdnJKuj6C23wn-OU_-128" value="Управление компенсациями" style="rounded=0;whiteSpace=wrap;html=1;container=0;" parent="70DFdnJKuj6C23wn-OU_-140" vertex="1">
          <mxGeometry x="1480" y="755" width="120" height="60" as="geometry" />
        </mxCell>
        <mxCell id="70DFdnJKuj6C23wn-OU_-129" style="edgeStyle=orthogonalEdgeStyle;rounded=0;orthogonalLoop=1;jettySize=auto;html=1;fontFamily=Helvetica;fontSize=12;fontColor=default;" parent="70DFdnJKuj6C23wn-OU_-140" source="70DFdnJKuj6C23wn-OU_-125" target="70DFdnJKuj6C23wn-OU_-128" edge="1">
          <mxGeometry relative="1" as="geometry" />
        </mxCell>
        <mxCell id="70DFdnJKuj6C23wn-OU_-130" value="HR Аналитик" style="shape=umlActor;verticalLabelPosition=bottom;verticalAlign=top;html=1;outlineConnect=0;container=0;" parent="70DFdnJKuj6C23wn-OU_-140" vertex="1">
          <mxGeometry x="962.5" y="985" width="55" height="110" as="geometry" />
        </mxCell>
        <mxCell id="70DFdnJKuj6C23wn-OU_-131" value="Кадровое планирование" style="rounded=0;whiteSpace=wrap;html=1;container=0;" parent="70DFdnJKuj6C23wn-OU_-140" vertex="1">
          <mxGeometry x="720" y="1265" width="120" height="60" as="geometry" />
        </mxCell>
        <mxCell id="70DFdnJKuj6C23wn-OU_-132" style="edgeStyle=orthogonalEdgeStyle;rounded=0;orthogonalLoop=1;jettySize=auto;html=1;entryX=0.419;entryY=-0.05;entryDx=0;entryDy=0;entryPerimeter=0;fontFamily=Helvetica;fontSize=12;fontColor=default;" parent="70DFdnJKuj6C23wn-OU_-140" source="70DFdnJKuj6C23wn-OU_-130" target="70DFdnJKuj6C23wn-OU_-131" edge="1">
          <mxGeometry relative="1" as="geometry" />
        </mxCell>
        <mxCell id="70DFdnJKuj6C23wn-OU_-133" value="Анализ данных о персонале" style="rounded=0;whiteSpace=wrap;html=1;container=0;" parent="70DFdnJKuj6C23wn-OU_-140" vertex="1">
          <mxGeometry x="1150" y="1275" width="120" height="60" as="geometry" />
        </mxCell>
        <mxCell id="70DFdnJKuj6C23wn-OU_-134" style="edgeStyle=orthogonalEdgeStyle;rounded=0;orthogonalLoop=1;jettySize=auto;html=1;entryX=0.5;entryY=0;entryDx=0;entryDy=0;fontFamily=Helvetica;fontSize=12;fontColor=default;" parent="70DFdnJKuj6C23wn-OU_-140" source="70DFdnJKuj6C23wn-OU_-130" target="70DFdnJKuj6C23wn-OU_-133" edge="1">
          <mxGeometry relative="1" as="geometry" />
        </mxCell>
        <mxCell id="70DFdnJKuj6C23wn-OU_-141" value="Разработчики" style="text;html=1;align=center;verticalAlign=middle;resizable=0;points=[];autosize=1;strokeColor=none;fillColor=none;fontSize=200;fontFamily=Helvetica;fontColor=default;" parent="1" vertex="1">
          <mxGeometry x="-1120" y="-2370" width="1300" height="250" as="geometry" />
        </mxCell>
        <mxCell id="70DFdnJKuj6C23wn-OU_-142" value="Отдел маркетинга" style="text;html=1;align=center;verticalAlign=middle;resizable=0;points=[];autosize=1;strokeColor=none;fillColor=none;fontSize=200;fontFamily=Helvetica;fontColor=default;" parent="1" vertex="1">
          <mxGeometry x="1865" y="-2400" width="1710" height="250" as="geometry" />
        </mxCell>
        <mxCell id="70DFdnJKuj6C23wn-OU_-143" value="Финансовый отдел" style="text;html=1;align=center;verticalAlign=middle;resizable=0;points=[];autosize=1;strokeColor=none;fillColor=none;fontSize=200;fontFamily=Helvetica;fontColor=default;" parent="1" vertex="1">
          <mxGeometry x="-995" y="-510" width="1780" height="250" as="geometry" />
        </mxCell>
        <mxCell id="70DFdnJKuj6C23wn-OU_-144" value="Отдел кадров" style="text;html=1;align=center;verticalAlign=middle;resizable=0;points=[];autosize=1;strokeColor=none;fillColor=none;fontSize=200;fontFamily=Helvetica;fontColor=default;" parent="1" vertex="1">
          <mxGeometry x="1905" y="-450" width="1310" height="250" as="geometry" />
        </mxCell>
      </root>
    </mxGraphModel>
  </diagram>
</mxfile>
